<svg width="512" height="512" viewBox="0 0 512 512" fill="none" xmlns="http://www.w3.org/2000/svg">
<rect opacity="0.7" x="85" y="85" width="339" height="339" rx="40" fill="#86DAB2"/>
<rect x="99" y="100" width="313" height="313" rx="40" fill="#07C660"/>
<path d="M180 302L234.692 229.801L184.581 158H224.891L252.238 203.918C254.762 208.28 256.493 211.518 257.429 213.657H257.784C259.58 210.177 261.471 206.797 263.457 203.519L292.69 158.024H329.695L278.307 229.402L331 302H291.626L260.039 251.599C258.551 249.455 257.288 247.203 256.266 244.869H255.798C254.873 247.155 253.645 249.344 252.139 251.394L219.615 302H180Z" fill="white"/>
<path d="M152.909 343.091L161.273 357.364L169.636 343.091H175.818L164.545 360.545L175.818 378H169.636L161.273 364.455L152.909 378H146.727L157.818 360.545L146.727 343.091H152.909ZM188.835 331.455V378H183.472V331.455H188.835ZM223.386 350.909L218.568 352.273C218.265 351.47 217.818 350.689 217.227 349.932C216.652 349.159 215.864 348.523 214.864 348.023C213.864 347.523 212.583 347.273 211.023 347.273C208.886 347.273 207.106 347.765 205.682 348.75C204.273 349.72 203.568 350.955 203.568 352.455C203.568 353.788 204.053 354.841 205.023 355.614C205.992 356.386 207.508 357.03 209.568 357.545L214.75 358.818C217.871 359.576 220.197 360.735 221.727 362.295C223.258 363.841 224.023 365.833 224.023 368.273C224.023 370.273 223.447 372.061 222.295 373.636C221.159 375.212 219.568 376.455 217.523 377.364C215.477 378.273 213.098 378.727 210.386 378.727C206.826 378.727 203.879 377.955 201.545 376.409C199.212 374.864 197.735 372.606 197.114 369.636L202.205 368.364C202.689 370.242 203.606 371.652 204.955 372.591C206.318 373.53 208.098 374 210.295 374C212.795 374 214.78 373.47 216.25 372.409C217.735 371.333 218.477 370.045 218.477 368.545C218.477 367.333 218.053 366.318 217.205 365.5C216.356 364.667 215.053 364.045 213.295 363.636L207.477 362.273C204.28 361.515 201.932 360.341 200.432 358.75C198.947 357.144 198.205 355.136 198.205 352.727C198.205 350.758 198.758 349.015 199.864 347.5C200.985 345.985 202.508 344.795 204.432 343.932C206.371 343.068 208.568 342.636 211.023 342.636C214.477 342.636 217.189 343.394 219.159 344.909C221.144 346.424 222.553 348.424 223.386 350.909ZM248.551 329.273L233.551 385H228.642L243.642 329.273H248.551ZM258.909 343.091L267.273 357.364L275.636 343.091H281.818L270.545 360.545L281.818 378H275.636L267.273 364.455L258.909 378H252.727L263.818 360.545L252.727 343.091H258.909ZM294.835 331.455V378H289.472V331.455H294.835ZM329.386 350.909L324.568 352.273C324.265 351.47 323.818 350.689 323.227 349.932C322.652 349.159 321.864 348.523 320.864 348.023C319.864 347.523 318.583 347.273 317.023 347.273C314.886 347.273 313.106 347.765 311.682 348.75C310.273 349.72 309.568 350.955 309.568 352.455C309.568 353.788 310.053 354.841 311.023 355.614C311.992 356.386 313.508 357.03 315.568 357.545L320.75 358.818C323.871 359.576 326.197 360.735 327.727 362.295C329.258 363.841 330.023 365.833 330.023 368.273C330.023 370.273 329.447 372.061 328.295 373.636C327.159 375.212 325.568 376.455 323.523 377.364C321.477 378.273 319.098 378.727 316.386 378.727C312.826 378.727 309.879 377.955 307.545 376.409C305.212 374.864 303.735 372.606 303.114 369.636L308.205 368.364C308.689 370.242 309.606 371.652 310.955 372.591C312.318 373.53 314.098 374 316.295 374C318.795 374 320.78 373.47 322.25 372.409C323.735 371.333 324.477 370.045 324.477 368.545C324.477 367.333 324.053 366.318 323.205 365.5C322.356 364.667 321.053 364.045 319.295 363.636L313.477 362.273C310.28 361.515 307.932 360.341 306.432 358.75C304.947 357.144 304.205 355.136 304.205 352.727C304.205 350.758 304.758 349.015 305.864 347.5C306.985 345.985 308.508 344.795 310.432 343.932C312.371 343.068 314.568 342.636 317.023 342.636C320.477 342.636 323.189 343.394 325.159 344.909C327.144 346.424 328.553 348.424 329.386 350.909ZM342.097 343.091L350.46 357.364L358.824 343.091H365.006L353.733 360.545L365.006 378H358.824L350.46 364.455L342.097 378H335.915L347.006 360.545L335.915 343.091H342.097Z" fill="white"/>
</svg>
