<svg width="40" height="40" viewBox="0 0 40 40" fill="none" xmlns="http://www.w3.org/2000/svg">
<rect opacity="0.2" x="1.875" y="2.10938" width="36.25" height="35.8594" rx="7" fill="#86DAB2"/>
<rect x="7.73438" y="7.8125" width="24.4531" height="24.4531" rx="5" fill="#07C660"/>
<path d="M14.1172 23.7991L18.39 18.1585L14.4751 12.5491H17.6243L19.7608 16.1364C19.958 16.4772 20.0932 16.7302 20.1663 16.8973H20.194C20.3344 16.6254 20.4821 16.3614 20.6373 16.1052L22.9211 12.551H25.8121L21.7974 18.1273L25.9141 23.7991H22.838L20.3702 19.8615C20.254 19.694 20.1553 19.518 20.0755 19.3357H20.0389C19.9666 19.5143 19.8707 19.6853 19.753 19.8455L17.2121 23.7991H14.1172Z" fill="white"/>
<path d="M13.5568 26.8182L14.0795 27.7102L14.6023 26.8182H14.9886L14.2841 27.9091L14.9886 29H14.6023L14.0795 28.1534L13.5568 29H13.1705L13.8636 27.9091L13.1705 26.8182H13.5568ZM15.8022 26.0909V29H15.467V26.0909H15.8022ZM17.9616 27.3068L17.6605 27.392C17.6416 27.3419 17.6136 27.2931 17.5767 27.2457C17.5407 27.1974 17.4915 27.1577 17.429 27.1264C17.3665 27.0952 17.2865 27.0795 17.1889 27.0795C17.0554 27.0795 16.9441 27.1103 16.8551 27.1719C16.767 27.2325 16.723 27.3097 16.723 27.4034C16.723 27.4867 16.7533 27.5526 16.8139 27.6009C16.8745 27.6491 16.9692 27.6894 17.098 27.7216L17.4219 27.8011C17.617 27.8485 17.7623 27.9209 17.858 28.0185C17.9536 28.1151 18.0014 28.2396 18.0014 28.392C18.0014 28.517 17.9654 28.6288 17.8935 28.7273C17.8224 28.8258 17.723 28.9034 17.5952 28.9602C17.4673 29.017 17.3187 29.0455 17.1491 29.0455C16.9266 29.0455 16.7424 28.9972 16.5966 28.9006C16.4508 28.804 16.3584 28.6629 16.3196 28.4773L16.6378 28.3977C16.6681 28.5152 16.7254 28.6032 16.8097 28.6619C16.8949 28.7206 17.0062 28.75 17.1435 28.75C17.2997 28.75 17.4238 28.7169 17.5156 28.6506C17.6084 28.5833 17.6548 28.5028 17.6548 28.4091C17.6548 28.3333 17.6283 28.2699 17.5753 28.2188C17.5223 28.1667 17.4408 28.1278 17.331 28.1023L16.9673 28.017C16.7675 27.9697 16.6207 27.8963 16.527 27.7969C16.4342 27.6965 16.3878 27.571 16.3878 27.4205C16.3878 27.2973 16.4223 27.1884 16.4915 27.0938C16.5616 26.9991 16.6567 26.9247 16.777 26.8707C16.8982 26.8168 17.0355 26.7898 17.1889 26.7898C17.4048 26.7898 17.5743 26.8371 17.6974 26.9318C17.8215 27.0265 17.9096 27.1515 17.9616 27.3068ZM19.5344 25.9545L18.5969 29.4375H18.2901L19.2276 25.9545H19.5344ZM20.1818 26.8182L20.7045 27.7102L21.2273 26.8182H21.6136L20.9091 27.9091L21.6136 29H21.2273L20.7045 28.1534L20.1818 29H19.7955L20.4886 27.9091L19.7955 26.8182H20.1818ZM22.4272 26.0909V29H22.092V26.0909H22.4272ZM24.5866 27.3068L24.2855 27.392C24.2666 27.3419 24.2386 27.2931 24.2017 27.2457C24.1657 27.1974 24.1165 27.1577 24.054 27.1264C23.9915 27.0952 23.9115 27.0795 23.8139 27.0795C23.6804 27.0795 23.5691 27.1103 23.4801 27.1719C23.392 27.2325 23.348 27.3097 23.348 27.4034C23.348 27.4867 23.3783 27.5526 23.4389 27.6009C23.4995 27.6491 23.5942 27.6894 23.723 27.7216L24.0469 27.8011C24.242 27.8485 24.3873 27.9209 24.483 28.0185C24.5786 28.1151 24.6264 28.2396 24.6264 28.392C24.6264 28.517 24.5904 28.6288 24.5185 28.7273C24.4474 28.8258 24.348 28.9034 24.2202 28.9602C24.0923 29.017 23.9437 29.0455 23.7741 29.0455C23.5516 29.0455 23.3674 28.9972 23.2216 28.9006C23.0758 28.804 22.9834 28.6629 22.9446 28.4773L23.2628 28.3977C23.2931 28.5152 23.3504 28.6032 23.4347 28.6619C23.5199 28.7206 23.6312 28.75 23.7685 28.75C23.9247 28.75 24.0488 28.7169 24.1406 28.6506C24.2334 28.5833 24.2798 28.5028 24.2798 28.4091C24.2798 28.3333 24.2533 28.2699 24.2003 28.2188C24.1473 28.1667 24.0658 28.1278 23.956 28.1023L23.5923 28.017C23.3925 27.9697 23.2457 27.8963 23.152 27.7969C23.0592 27.6965 23.0128 27.571 23.0128 27.4205C23.0128 27.2973 23.0473 27.1884 23.1165 27.0938C23.1866 26.9991 23.2817 26.9247 23.402 26.8707C23.5232 26.8168 23.6605 26.7898 23.8139 26.7898C24.0298 26.7898 24.1993 26.8371 24.3224 26.9318C24.4465 27.0265 24.5346 27.1515 24.5866 27.3068ZM25.381 26.8182L25.9038 27.7102L26.4265 26.8182H26.8129L26.1083 27.9091L26.8129 29H26.4265L25.9038 28.1534L25.381 29H24.9947L25.6879 27.9091L24.9947 26.8182H25.381Z" fill="white"/>
</svg>
